<?xml version="1.0" encoding="UTF-8" standalone="no"?>
<!DOCTYPE svg PUBLIC "-//W3C//DTD SVG 1.1//EN" "http://www.w3.org/Graphics/SVG/1.1/DTD/svg11.dtd">
<svg width="100%" height="100%" viewBox="0 0 2560 1440" version="1.1" xmlns="http://www.w3.org/2000/svg" xmlns:xlink="http://www.w3.org/1999/xlink" xml:space="preserve" xmlns:serif="http://www.serif.com/" style="fill-rule:evenodd;clip-rule:evenodd;stroke-linejoin:round;stroke-miterlimit:2;">
    <path d="M0.078,728L0,728C-4.415,728 -8,724.415 -8,720C-8,715.585 -4.415,712 -0,712L0.078,712C7.714,318.3 578.296,0 1280,0C1981.7,0 2552.29,318.3 2559.92,712L2560,712C2564.41,712 2568,715.585 2568,720C2568,724.415 2564.41,728 2560,728L2559.92,728C2552.29,1121.7 1981.7,1440 1280,1440C578.296,1440 7.714,1121.7 0.078,728ZM929.85,43.491C714.791,78.113 523.061,143.847 371.192,231.59L529.815,231.59C639.03,148.28 775.789,83.174 929.85,43.491ZM344.342,247.587C313.302,266.659 284.084,286.688 256.841,307.587C196.763,353.676 146.343,403.973 107.415,457.567L328.698,457.567C371.753,380.158 433.283,309.265 509.455,247.59L344.557,247.59C344.485,247.59 344.413,247.589 344.342,247.587ZM96.202,473.567C46.049,547.815 17.772,628.072 16.081,712L258.682,712C259.977,628.341 281.555,548.086 320.111,473.567L96.202,473.567ZM2543.92,712C2542.22,627.938 2513.86,547.558 2463.56,473.21C2462.81,473.442 2462.01,473.567 2461.19,473.567L2239.89,473.567C2278.45,548.086 2300.02,628.341 2301.32,712L2543.92,712ZM2452.59,457.567C2413.66,403.973 2363.24,353.676 2303.16,307.587C2275.92,286.689 2246.7,266.661 2215.66,247.59L2050.55,247.59C2126.72,309.265 2188.25,380.158 2231.3,457.567L2452.59,457.567ZM2188.81,231.59C2036.94,143.847 1845.21,78.113 1630.15,43.491C1784.21,83.174 1920.97,148.28 2030.18,231.59L2188.81,231.59ZM1630.15,1396.51C1847.89,1361.45 2041.73,1294.51 2194.48,1205.11L2034.48,1205.11C1924.57,1290 1786.24,1356.3 1630.15,1396.51ZM2216.94,1191.62C2247.5,1172.79 2276.29,1153.02 2303.16,1132.41C2364.47,1085.38 2415.72,1033.96 2454.96,979.135L2233.12,979.135C2190.75,1056.45 2129.97,1127.33 2054.59,1189.11L2211.12,1189.11C2213.42,1189.11 2215.48,1190.08 2216.94,1191.62ZM2465.26,964.25C2514.5,890.613 2542.24,811.106 2543.92,728L2301.32,728C2300.04,810.426 2279.08,889.547 2241.58,963.135L2461.19,963.135C2462.68,963.135 2464.07,963.542 2465.26,964.25ZM16.081,728C17.747,810.692 45.222,889.821 94.001,963.149C94.163,963.14 94.326,963.135 94.491,963.135L318.417,963.135C280.924,889.547 259.958,810.426 258.682,728L16.081,728ZM105.037,979.135C144.281,1033.96 195.532,1085.38 256.841,1132.41C282.518,1152.11 309.951,1171.04 339.009,1189.12C339.101,1189.11 339.193,1189.11 339.285,1189.11L505.406,1189.11C430.028,1127.33 369.254,1056.45 326.877,979.135L105.037,979.135ZM365.518,1205.11C518.274,1294.51 712.105,1361.45 929.85,1396.51C773.761,1356.3 635.433,1290 525.517,1205.11L365.518,1205.11ZM1076.53,30.465C874.71,59.59 694.778,131.198 556.587,231.59L761.979,231.59C846.333,138.406 954.483,67.996 1076.53,30.465ZM535.231,247.59C511.007,266.309 488.186,285.948 466.885,306.426C418.627,352.822 378.211,403.524 347.086,457.567L623.103,457.567C652.833,380.158 695.321,309.265 747.92,247.59L535.231,247.59ZM338.196,473.567C298.406,547.863 276.025,628.149 274.684,712L574.755,712C575.649,628.341 590.55,548.086 617.173,473.567L338.196,473.567ZM2285.32,712C2283.97,628.149 2261.59,547.863 2221.8,473.567L1942.83,473.567C1969.45,548.086 1984.35,628.341 1985.25,712L2285.32,712ZM2212.91,457.567C2181.79,403.524 2141.37,352.822 2093.12,306.426C2071.81,285.948 2048.99,266.309 2024.77,247.59L1812.08,247.59C1864.68,309.265 1907.17,380.158 1936.9,457.567L2212.91,457.567ZM2003.41,231.59C1865.22,131.198 1685.29,59.59 1483.47,30.465C1605.52,67.996 1713.67,138.406 1798.02,231.59L2003.41,231.59ZM1483.47,1409.54C1687.49,1380.09 1869.15,1307.23 2007.92,1205.11L1800.99,1205.11C1716.21,1299.93 1606.95,1371.56 1483.47,1409.54ZM2029.01,1189.11C2051.66,1171.39 2073.06,1152.85 2093.12,1133.57C2142.35,1086.24 2183.43,1034.41 2214.8,979.135L1938.15,979.135C1908.89,1056.45 1866.93,1127.33 1814.88,1189.11L2029.01,1189.11ZM2223.56,963.135C2262.25,889.762 2283.99,810.611 2285.32,728L1985.25,728C1984.36,810.426 1969.89,889.547 1944,963.135L2223.56,963.135ZM274.684,728C276.005,810.611 297.748,889.762 336.442,963.135L616.003,963.135C590.113,889.547 575.636,810.426 574.755,728L274.684,728ZM345.2,979.135C376.572,1034.41 417.647,1086.24 466.885,1133.57C486.938,1152.85 508.339,1171.39 530.989,1189.11L745.124,1189.11C693.073,1127.33 651.107,1056.45 621.845,979.135L345.2,979.135ZM552.075,1205.11C690.851,1307.23 872.506,1380.09 1076.53,1409.54C953.047,1371.56 843.79,1299.93 759.011,1205.11L552.075,1205.11ZM1175.26,24.09C1022.52,47.911 886.237,123.002 783.759,231.59L980.952,231.59C1032.56,132.837 1099.59,59.662 1175.26,24.09ZM769.119,247.59C714.842,308.776 670.945,379.74 640.276,457.567L900.78,457.567C917.943,380.158 942.471,309.265 972.835,247.59L769.119,247.59ZM634.193,473.567C606.95,547.921 591.672,628.217 590.756,712L872.869,712C873.385,628.341 881.987,548.086 897.357,473.567L634.193,473.567ZM1969.24,712C1968.33,628.217 1953.05,547.921 1925.81,473.567L1662.64,473.567C1678.01,548.086 1686.62,628.341 1687.13,712L1969.24,712ZM1919.72,457.567C1889.06,379.74 1845.16,308.776 1790.88,247.59L1587.16,247.59C1617.53,309.265 1642.06,380.158 1659.22,457.567L1919.72,457.567ZM1776.24,231.59C1673.76,123.002 1537.48,47.911 1384.74,24.09C1460.41,59.662 1527.44,132.837 1579.05,231.59L1776.24,231.59ZM1384.74,1415.91C1539.02,1391.85 1676.51,1315.48 1779.33,1205.11L1580.76,1205.11C1528.93,1305.53 1461.25,1379.94 1384.74,1415.91ZM1793.79,1189.11C1847.49,1127.81 1890.83,1056.86 1921.01,979.135L1659.95,979.135C1643.05,1056.45 1618.83,1127.33 1588.78,1189.11L1793.79,1189.11ZM1927.01,963.135C1953.5,889.706 1968.34,810.546 1969.24,728L1687.13,728C1686.62,810.426 1678.27,889.547 1663.32,963.135L1927.01,963.135ZM590.756,728C591.658,810.546 606.501,889.706 632.994,963.135L896.681,963.135C881.735,889.547 873.378,810.426 872.869,728L590.756,728ZM638.986,979.135C669.166,1056.86 712.512,1127.81 766.211,1189.11L971.221,1189.11C941.173,1127.33 916.947,1056.45 900.054,979.135L638.986,979.135ZM780.666,1205.11C883.487,1315.48 1020.98,1391.85 1175.26,1415.91C1098.75,1379.94 1031.07,1305.53 979.238,1205.11L780.666,1205.11ZM1239.42,19.792C1169.84,32.871 1105.96,79.154 1052.27,148.766C1033.15,173.565 1015.33,201.298 999.025,231.59L1152.44,231.59C1175.38,128.673 1205.47,53.536 1239.42,19.792ZM990.674,247.59C959.647,308.896 934.61,379.845 917.127,457.567L1118.24,457.567C1125.56,380.158 1136.02,309.265 1148.97,247.59L990.674,247.59ZM913.655,473.567C898.094,547.968 889.391,628.257 888.869,712L1106.33,712C1106.55,628.341 1110.22,548.086 1116.78,473.567L913.655,473.567ZM1671.13,712C1670.61,628.257 1661.91,547.968 1646.35,473.567L1443.22,473.567C1449.78,548.086 1453.45,628.341 1453.67,712L1671.13,712ZM1642.87,457.567C1625.39,379.845 1600.35,308.896 1569.33,247.59L1411.03,247.59C1423.98,309.265 1434.44,380.158 1441.76,457.567L1642.87,457.567ZM1560.98,231.59C1544.67,201.298 1526.85,173.565 1507.73,148.766C1454.04,79.154 1390.16,32.871 1320.58,19.792C1354.53,53.536 1384.62,128.673 1407.56,231.59L1560.98,231.59ZM1320.58,1420.21C1390.16,1407.13 1454.04,1360.85 1507.73,1291.23C1527.54,1265.54 1545.96,1236.69 1562.74,1205.11L1408.3,1205.11C1385.26,1309.72 1354.89,1386.1 1320.58,1420.21ZM1570.99,1189.11C1601.68,1127.69 1626.4,1056.75 1643.61,979.135L1442.07,979.135C1434.87,1056.45 1424.53,1127.33 1411.71,1189.11L1570.99,1189.11ZM1647.03,963.135C1662.16,889.661 1670.62,810.507 1671.13,728L1453.67,728C1453.45,810.426 1449.89,889.547 1443.51,963.135L1647.03,963.135ZM888.869,728C889.383,810.507 897.839,889.661 912.97,963.135L1116.49,963.135C1110.11,889.547 1106.55,810.426 1106.33,728L888.869,728ZM916.39,979.135C933.595,1056.75 958.318,1127.69 989.015,1189.11L1148.29,1189.11C1135.47,1127.33 1125.13,1056.45 1117.93,979.135L916.39,979.135ZM997.261,1205.11C1014.04,1236.69 1032.46,1265.54 1052.27,1291.23C1105.96,1360.85 1169.84,1407.13 1239.42,1420.21C1205.11,1386.1 1174.74,1309.72 1151.7,1205.11L997.261,1205.11ZM1391.27,231.59C1378.1,173.346 1362.57,124.339 1345.28,87.163C1334.24,63.432 1322.62,44.759 1310.27,32.121C1300.45,22.069 1290.57,16 1280,16C1269.43,16 1259.55,22.069 1249.73,32.121C1237.38,44.759 1225.76,63.432 1214.72,87.163C1197.43,124.339 1181.9,173.346 1168.73,231.59L1391.27,231.59ZM1165.22,247.59C1152.14,309.039 1141.61,379.966 1134.25,457.567L1425.75,457.567C1418.39,379.966 1407.86,309.039 1394.78,247.59L1165.22,247.59ZM1132.78,473.567C1126.22,548.011 1122.55,628.285 1122.33,712L1437.67,712C1437.45,628.285 1433.78,548.011 1427.22,473.567L1132.78,473.567ZM1167.99,1205.11C1181.32,1264.81 1197.11,1314.96 1214.72,1352.84C1225.76,1376.57 1237.38,1395.24 1249.73,1407.88C1259.55,1417.93 1269.43,1424 1280,1424C1290.57,1424 1300.45,1417.93 1310.27,1407.88C1322.62,1395.24 1334.24,1376.57 1345.28,1352.84C1362.89,1314.96 1378.68,1264.81 1392.01,1205.11L1167.99,1205.11ZM1395.48,1189.11C1408.42,1127.55 1418.82,1056.64 1426.07,979.135L1133.93,979.135C1141.18,1056.64 1151.58,1127.55 1164.52,1189.11L1395.48,1189.11ZM1427.51,963.135C1433.89,889.62 1437.45,810.48 1437.67,728L1122.33,728C1122.55,810.48 1126.11,889.62 1132.49,963.135L1427.51,963.135Z"/>
</svg>
