<svg width="137" height="32" viewBox="0 0 137 32" fill="none" xmlns="http://www.w3.org/2000/svg">
<path d="M58.35 10.5H62.25V21H58.35V17.4H52.2V21H48.3V10.5H52.2V14.1H58.35V10.5Z" fill="#6AFF67"/>
<path d="M66.7459 10.5V21H62.8459V10.5H66.7459Z" fill="#6AFF67"/>
<path d="M77.393 10.5H81.683L77.333 21H71.543L67.193 10.5H71.483L74.438 18.3L77.393 10.5Z" fill="#6AFF67"/>
<path d="M93.0914 13.5H85.8914V14.475H93.0914V17.025H85.8914V18H93.0914V21H81.9914V10.5H93.0914V13.5Z" fill="#6AFF67"/>
<path d="M93.3844 15.735C93.3844 12.09 95.3644 10.35 99.9844 10.35C104.184 10.35 106.374 11.82 106.539 15.135H102.549C102.399 14.145 101.634 13.65 99.9844 13.65C97.6744 13.65 97.2844 14.625 97.2844 15.735C97.2844 16.86 97.6894 17.85 99.9844 17.85C101.634 17.85 102.399 17.34 102.549 16.335H106.539C106.374 19.665 104.199 21.15 99.9844 21.15C95.3644 21.15 93.3844 19.395 93.3844 15.735Z" fill="#6AFF67"/>
<path d="M113.446 21.15C108.826 21.15 106.846 19.395 106.846 15.735C106.846 12.09 108.826 10.35 113.446 10.35C118.051 10.35 120.046 12.105 120.046 15.735C120.046 19.38 118.051 21.15 113.446 21.15ZM113.446 17.85C115.741 17.85 116.146 16.845 116.146 15.735C116.146 14.64 115.756 13.65 113.446 13.65C111.136 13.65 110.746 14.625 110.746 15.735C110.746 16.86 111.151 17.85 113.446 17.85Z" fill="#6AFF67"/>
<path d="M136.582 10.5V21H132.682V16.005L129.817 21H127.267L124.402 16.005V21H120.502V10.5H125.302L128.542 16.5L131.782 10.5H136.582Z" fill="#6AFF67"/>
<path d="M0 6C0 2.68629 2.68629 0 6 0H26C29.3137 0 32 2.68629 32 6V26C32 29.3137 29.3137 32 26 32H6C2.68629 32 0 29.3137 0 26V6Z" fill="#6AFF67"/>
<path d="M21 10H23.88V21.2H21V16.816H11.88V21.2H9V10H11.88V14.384H21V10Z" fill="black"/>
</svg>
