<?xml version="1.0" encoding="UTF-8" standalone="no"?>
<!DOCTYPE svg PUBLIC "-//W3C//DTD SVG 1.1//EN" "http://www.w3.org/Graphics/SVG/1.1/DTD/svg11.dtd">
<svg width="100%" height="100%" viewBox="0 0 137 32" version="1.1" xmlns="http://www.w3.org/2000/svg" xmlns:xlink="http://www.w3.org/1999/xlink" xml:space="preserve" xmlns:serif="http://www.serif.com/" style="fill-rule:evenodd;clip-rule:evenodd;stroke-linejoin:round;stroke-miterlimit:2;">
    <path d="M58.35,10.5L62.25,10.5L62.25,21L58.35,21L58.35,17.4L52.2,17.4L52.2,21L48.3,21L48.3,10.5L52.2,10.5L52.2,14.1L58.35,14.1L58.35,10.5Z" style="fill:rgb(167,252,47);fill-rule:nonzero;"/>
    <rect x="62.846" y="10.5" width="3.9" height="10.5" style="fill:rgb(167,252,47);fill-rule:nonzero;"/>
    <path d="M77.393,10.5L81.683,10.5L77.333,21L71.543,21L67.193,10.5L71.483,10.5L74.438,18.3L77.393,10.5Z" style="fill:rgb(167,252,47);fill-rule:nonzero;"/>
    <path d="M93.091,13.5L85.891,13.5L85.891,14.475L93.091,14.475L93.091,17.025L85.891,17.025L85.891,18L93.091,18L93.091,21L81.991,21L81.991,10.5L93.091,10.5L93.091,13.5Z" style="fill:rgb(167,252,47);fill-rule:nonzero;"/>
    <path d="M93.384,15.735C93.384,12.09 95.364,10.35 99.984,10.35C104.184,10.35 106.374,11.82 106.539,15.135L102.549,15.135C102.399,14.145 101.634,13.65 99.984,13.65C97.674,13.65 97.284,14.625 97.284,15.735C97.284,16.86 97.689,17.85 99.984,17.85C101.634,17.85 102.399,17.34 102.549,16.335L106.539,16.335C106.374,19.665 104.199,21.15 99.984,21.15C95.364,21.15 93.384,19.395 93.384,15.735Z" style="fill:rgb(167,252,47);fill-rule:nonzero;"/>
    <path d="M113.446,21.15C108.826,21.15 106.846,19.395 106.846,15.735C106.846,12.09 108.826,10.35 113.446,10.35C118.051,10.35 120.046,12.105 120.046,15.735C120.046,19.38 118.051,21.15 113.446,21.15ZM113.446,17.85C115.741,17.85 116.146,16.845 116.146,15.735C116.146,14.64 115.756,13.65 113.446,13.65C111.136,13.65 110.746,14.625 110.746,15.735C110.746,16.86 111.151,17.85 113.446,17.85Z" style="fill:rgb(167,252,47);fill-rule:nonzero;"/>
    <path d="M136.582,10.5L136.582,21L132.682,21L132.682,16.005L129.817,21L127.267,21L124.402,16.005L124.402,21L120.502,21L120.502,10.5L125.302,10.5L128.542,16.5L131.782,10.5L136.582,10.5Z" style="fill:rgb(167,252,47);fill-rule:nonzero;"/>
    <path d="M0,6C0,2.686 2.686,0 6,0L26,0C29.314,0 32,2.686 32,6L32,26C32,29.314 29.314,32 26,32L6,32C2.686,32 0,29.314 0,26L0,6Z" style="fill:rgb(167,252,47);fill-rule:nonzero;"/>
    <path d="M21,10L23.88,10L23.88,21.2L21,21.2L21,16.816L11.88,16.816L11.88,21.2L9,21.2L9,10L11.88,10L11.88,14.384L21,14.384L21,10Z" style="fill-rule:nonzero;"/>
</svg>
