<svg width="308" height="38" viewBox="0 0 308 38" fill="none" xmlns="http://www.w3.org/2000/svg">
<path d="M35.0626 0.527776H48.669V37.4722H35.0626V24.8056H13.6064V37.4722H0V0.527776H13.6064V13.1944H35.0626V0.527776Z" fill="white"/>
<path d="M64.3543 0.527776V37.4722H50.7479V0.527776H64.3543Z" fill="white"/>
<path d="M101.5 0.527776H116.467L101.291 37.4722H81.0904L65.9141 0.527776H80.8811L91.1905 27.9722L101.5 0.527776Z" fill="white"/>
<path d="M156.269 11.0833H131.149V14.5139H156.269V23.4861H131.149V26.9167H156.269V37.4722H117.543V0.527776H156.269V11.0833Z" fill="white"/>
<path d="M157.291 18.9472C157.291 6.12222 164.199 0 180.317 0C194.97 0 202.611 5.17222 203.186 16.8361H189.266C188.743 13.3528 186.074 11.6111 180.317 11.6111C172.258 11.6111 170.897 15.0417 170.897 18.9472C170.897 22.9056 172.31 26.3889 180.317 26.3889C186.074 26.3889 188.743 24.5944 189.266 21.0583H203.186C202.611 32.775 195.023 38 180.317 38C164.199 38 157.291 31.825 157.291 18.9472Z" fill="white"/>
<path d="M227.283 38C211.165 38 204.257 31.825 204.257 18.9472C204.257 6.12222 211.165 0 227.283 0C243.349 0 250.309 6.175 250.309 18.9472C250.309 31.7722 243.349 38 227.283 38ZM227.283 26.3889C235.29 26.3889 236.703 22.8528 236.703 18.9472C236.703 15.0944 235.342 11.6111 227.283 11.6111C219.224 11.6111 217.863 15.0417 217.863 18.9472C217.863 22.9056 219.276 26.3889 227.283 26.3889Z" fill="white"/>
<path d="M308 0.527776V37.4722H294.394V19.8972L284.398 37.4722H275.502L265.506 19.8972V37.4722H251.9V0.527776H268.646L279.95 21.6389L291.254 0.527776H308Z" fill="white"/>
</svg>
